<svg viewBox="0 0 24 24" fill="none" xmlns="http://www.w3.org/2000/svg">
    <path
        d="M12 2C6.48 2 2 5.58 2 10C2 12.38 3.29 14.51 5.3 15.91C5.03 17.5 4.09 19.34 4.05 19.43C3.96 19.64 4.01 19.88 4.18 20.02C4.26 20.09 4.38 20.12 4.49 20.12C4.59 20.12 4.69 20.09 4.78 20.02C6.91 18.39 8.7 18.04 9.61 17.91C10.38 18.06 11.18 18.15 12 18.15C17.52 18.15 22 14.57 22 10C22 5.58 17.52 2 12 2ZM12 16.65C11.16 16.65 10.33 16.54 9.54 16.34C9.37 16.3 9.19 16.3 9.04 16.37C8.16 16.73 6.64 17.29 4.96 18.13C5.55 16.29 5.86 14.62 5.91 14.28C5.93 14.15 5.89 14.02 5.8 13.92C4.15 12.26 3.5 10.59 3.5 10C3.5 6.41 7.31 3.5 12 3.5C16.69 3.5 20.5 6.41 20.5 10C20.5 13.59 16.69 16.65 12 16.65Z"
        fill="white" />
    <path
        d="M8 9.5C8.82843 9.5 9.5 8.82843 9.5 8C9.5 7.17157 8.82843 6.5 8 6.5C7.17157 6.5 6.5 7.17157 6.5 8C6.5 8.82843 7.17157 9.5 8 9.5Z"
        fill="white" />
    <path
        d="M16 9.5C16.8284 9.5 17.5 8.82843 17.5 8C17.5 7.17157 16.8284 6.5 16 6.5C15.1716 6.5 14.5 7.17157 14.5 8C14.5 8.82843 15.1716 9.5 16 9.5Z"
        fill="white" />
    <path
        d="M12 12.5C10.6 12.5 9.38 11.69 8.76 10.45C8.57 10.08 8.12 9.93 7.75 10.12C7.38 10.31 7.23 10.76 7.42 11.13C8.36 12.99 10.12 14 12 14C13.88 14 15.64 12.99 16.58 11.13C16.77 10.76 16.62 10.31 16.25 10.12C15.88 9.93 15.43 10.08 15.24 10.45C14.62 11.69 13.4 12.5 12 12.5Z"
        fill="white" />
</svg>
